<svg width="18" height="20" viewBox="0 0 18 20" fill="none" xmlns="http://www.w3.org/2000/svg">
<path d="M1 4.75H2.75H16.75" stroke="white" stroke-width="2" stroke-linecap="round" stroke-linejoin="round"/>
<path d="M5.375 4.75V3C5.375 2.53587 5.55937 2.09075 5.88756 1.76256C6.21575 1.43437 6.66087 1.25 7.125 1.25H10.625C11.0891 1.25 11.5342 1.43437 11.8624 1.76256C12.1906 2.09075 12.375 2.53587 12.375 3V4.75M15 4.75V17C15 17.4641 14.8156 17.9092 14.4874 18.2374C14.1592 18.5656 13.7141 18.75 13.25 18.75H4.5C4.03587 18.75 3.59075 18.5656 3.26256 18.2374C2.93437 17.9092 2.75 17.4641 2.75 17V4.75H15Z" stroke="white" stroke-width="2" stroke-linecap="round" stroke-linejoin="round"/>
<path d="M7.125 9.125V14.375" stroke="white" stroke-width="2" stroke-linecap="round" stroke-linejoin="round"/>
<path d="M10.625 9.125V14.375" stroke="white" stroke-width="2" stroke-linecap="round" stroke-linejoin="round"/>
</svg>
