<svg width="26" height="22" viewBox="0 0 26 22" fill="none" xmlns="http://www.w3.org/2000/svg">
<path d="M18 20V18C18 16.9391 17.5786 15.9217 16.8284 15.1716C16.0783 14.4214 15.0609 14 14 14H6C4.93913 14 3.92172 14.4214 3.17157 15.1716C2.42143 15.9217 2 16.9391 2 18V20" stroke="#333333" stroke-width="3" stroke-linecap="round" stroke-linejoin="round"/>
<path d="M10 10C12.2091 10 14 8.20914 14 6C14 3.79086 12.2091 2 10 2C7.79086 2 6 3.79086 6 6C6 8.20914 7.79086 10 10 10Z" stroke="#333333" stroke-width="3" stroke-linecap="round" stroke-linejoin="round"/>
<path d="M24 20V18C23.9993 17.1137 23.7044 16.2528 23.1614 15.5523C22.6184 14.8519 21.8581 14.3516 21 14.13" stroke="#333333" stroke-width="3" stroke-linecap="round" stroke-linejoin="round"/>
<path d="M17 2.13C17.8604 2.35031 18.623 2.85071 19.1676 3.55232C19.7122 4.25392 20.0078 5.11683 20.0078 6.005C20.0078 6.89318 19.7122 7.75608 19.1676 8.45769C18.623 9.1593 17.8604 9.6597 17 9.88" stroke="#333333" stroke-width="3" stroke-linecap="round" stroke-linejoin="round"/>
</svg>
