<svg width="26" height="22" viewBox="0 0 26 22" fill="none" xmlns="http://www.w3.org/2000/svg">
<path d="M17 20V18C17 16.9391 16.5786 15.9217 15.8284 15.1716C15.0783 14.4214 14.0609 14 13 14H6C4.93913 14 3.92172 14.4214 3.17157 15.1716C2.42143 15.9217 2 16.9391 2 18V20" stroke="#333333" stroke-width="3" stroke-linecap="round" stroke-linejoin="round"/>
<path d="M9.5 10C11.7091 10 13.5 8.20914 13.5 6C13.5 3.79086 11.7091 2 9.5 2C7.29086 2 5.5 3.79086 5.5 6C5.5 8.20914 7.29086 10 9.5 10Z" stroke="#333333" stroke-width="3" stroke-linecap="round" stroke-linejoin="round"/>
<path d="M21 7V13" stroke="#333333" stroke-width="3" stroke-linecap="round" stroke-linejoin="round"/>
<path d="M24 10H18" stroke="#333333" stroke-width="3" stroke-linecap="round" stroke-linejoin="round"/>
</svg>
