<svg width="20" height="20" viewBox="0 0 20 20" fill="none" xmlns="http://www.w3.org/2000/svg">
<path d="M8.65814 3.24438H2.70181C2.25046 3.24438 1.8176 3.42368 1.49845 3.74283C1.1793 4.06198 1 4.49485 1 4.94619V16.8589C1 17.3102 1.1793 17.7431 1.49845 18.0622C1.8176 18.3814 2.25046 18.5607 2.70181 18.5607H14.6145C15.0658 18.5607 15.4987 18.3814 15.8178 18.0622C16.137 17.7431 16.3163 17.3102 16.3163 16.8589V10.9025" stroke="white" stroke-width="2" stroke-linecap="round" stroke-linejoin="round"/>
<path d="M15.04 1.96802C15.3785 1.6295 15.8376 1.43933 16.3163 1.43933C16.795 1.43933 17.2542 1.6295 17.5927 1.96802C17.9312 2.30653 18.1214 2.76565 18.1214 3.24437C18.1214 3.7231 17.9312 4.18222 17.5927 4.52073L9.50909 12.6043L6.10547 13.4552L6.95637 10.0516L15.04 1.96802Z" stroke="white" stroke-width="2" stroke-linecap="round" stroke-linejoin="round"/>
</svg>
