<svg width="307" height="308" viewBox="0 0 307 308" fill="none" xmlns="http://www.w3.org/2000/svg">
<g opacity="0.3">
<path d="M74.6612 281.003L79.8786 274.03L86.1004 278.685L80.883 285.659L74.6612 281.003Z" fill="#DE8E68"/>
<path d="M40.6603 171.549C40.6603 171.549 21.5318 236.983 21.5324 238.311C21.533 239.638 75.0245 283.306 76.0163 283.306C77.0083 283.305 81.1191 275.322 81.1184 273.933C81.1178 272.545 68.3849 262.051 68.3849 262.051L40.6603 171.549Z" fill="#55C9D7"/>
<path d="M85.9376 278.172L80.3911 285.583L76.1849 301.012L77.975 302.353L92.4315 283.031L85.9376 278.172Z" fill="black"/>
<path d="M41.1124 139.455C38.8897 137.866 15.6346 118.111 11.4996 117.613C7.36489 117.115 7.41196 119.595 7.32338 120.331C7.23477 121.067 7.15643 126 18.3507 130.392C19.2184 131.762 34.0403 150.902 38.836 153.548C39.5431 148.17 41.1124 139.455 41.1124 139.455Z" fill="#ECC9B8"/>
<path d="M16.7955 125.216L4.12649 114.597L12.1365 111.346L24.5302 121.405L16.7955 125.216Z" fill="#333333"/>
<path d="M220.81 150.894V278.591C220.81 287.923 213.908 295.487 205.396 295.487H114.839C106.334 295.487 99.4261 287.923 99.4261 278.591V25.1918C99.4261 15.8629 106.325 8.29903 114.838 8.29596H205.396C213.902 8.29596 220.808 15.8585 220.81 25.1902V150.895" fill="white"/>
<path d="M137.404 2.2114H182.831C187.005 2.2114 190.389 5.59534 190.389 9.76931C190.389 13.9434 187.005 17.3272 182.831 17.3272H137.404C133.23 17.3272 129.846 13.9434 129.846 9.76931C129.846 5.59534 133.23 2.2114 137.404 2.2114Z" fill="#F3F3F3"/>
<path d="M205.86 0H114.37C102.051 0.00919846 92.069 10.9009 92.069 24.3335V279.437C92.069 292.87 102.051 303.763 114.37 303.771H205.86C218.184 303.771 228.175 292.876 228.175 279.437V24.3335C228.176 10.8948 218.185 0 205.86 0ZM220.808 150.9V277.929C220.808 287.212 213.907 294.736 205.395 294.736H114.839C106.334 294.736 99.4262 287.212 99.4262 277.929V25.8539C99.4262 16.5738 106.325 9.04934 114.838 9.04628H205.397C213.902 9.04628 220.808 16.5692 220.81 25.8509L220.808 150.9Z" fill="#F3F3F3"/>
<path d="M110.361 33.6424H209.879V82.3763H110.361V33.6424Z" fill="#F3F3F3"/>
<path d="M115.929 133.196H248.698V137.781H115.929V133.196Z" fill="#F3F3F3"/>
<path d="M115.929 146.361H248.698V150.947H115.929V146.361Z" fill="#F3F3F3"/>
<path d="M115.929 159.525H248.698V164.11H115.929V159.525Z" fill="#F3F3F3"/>
<path d="M115.929 172.69H248.698V177.276H115.929V172.69Z" fill="#F3F3F3"/>
<path d="M115.929 185.856H248.698V190.441H115.929V185.856Z" fill="#F3F3F3"/>
<path d="M115.929 199.021H248.698V203.607H115.929V199.021Z" fill="#F3F3F3"/>
<path d="M115.929 212.187H248.698V216.772H115.929V212.187Z" fill="#F3F3F3"/>
<path d="M115.929 225.352H248.698V229.937H115.929V225.352Z" fill="#F3F3F3"/>
<path d="M142.012 252.482H234.383V257.067H142.012V252.482Z" fill="#F3F3F3"/>
<path d="M142.012 262.121H243.841V266.706H142.012V262.121Z" fill="#F3F3F3"/>
<path d="M128.476 119.699H143.467V124.459H128.476V119.699Z" fill="#F3F3F3"/>
<path d="M148.427 119.699H163.419V124.459H148.427V119.699Z" fill="#F3F3F3"/>
<path d="M126.737 248.996C132.241 248.996 136.702 253.458 136.702 258.961C136.702 264.465 132.241 268.927 126.737 268.927C121.233 268.927 116.772 264.465 116.772 258.961C116.772 253.458 121.233 248.996 126.737 248.996Z" fill="#F3F3F3"/>
<path d="M115.929 99.7809H239.388V109.568H115.929V99.7809Z" fill="#E1E1E1"/>
<path d="M64.2422 70.4754H53.7423V86.9702C53.7423 89.0831 64.2422 88.9584 64.2422 86.9702V70.4754Z" fill="#ECC9B8"/>
<path d="M46.0594 62.2116C46.5936 52.8326 51.4496 45.4814 56.9059 45.7921C62.362 46.103 66.352 53.9581 65.8179 63.337C65.2838 72.716 60.4277 80.0671 54.9714 79.7565C49.5153 79.4456 45.5253 71.5905 46.0594 62.2116Z" fill="#ECC9B8"/>
<path d="M30.9972 57.673C30.9972 56.0297 31.9359 54.1523 31.9359 52.2735C31.9359 50.6301 31.2311 48.7528 31.2311 46.4046C31.2311 42.4146 35.2227 40.5358 37.3353 40.5358C41.3269 40.5358 42.2656 43.3532 48.6038 43.3532C52.3599 43.3532 54.0035 42.4146 56.1161 42.4146C62.6898 42.4146 63.6284 50.6316 63.6284 51.5702C63.6284 55.5617 69.0279 55.7957 69.0279 60.0212C69.0279 64.0112 64.8024 68.7075 61.5157 68.7075C58.2289 68.7075 55.1775 65.6561 55.1775 64.716C55.1775 62.6033 55.6468 62.1338 55.6468 60.7244C55.6468 55.7942 44.9038 54.6201 43.262 54.6201C42.4326 57.1259 41.9403 59.7307 41.7977 62.3663C40.5995 62.8297 39.3263 63.0686 38.0417 63.0711C36.866 63.0726 30.9972 61.663 30.9972 57.673Z" fill="#68383E"/>
<path d="M65.3067 66.8286C66.6681 66.8286 67.7718 67.9325 67.7718 69.2939C67.7718 70.6553 66.6681 71.7589 65.3067 71.7589C63.9453 71.7589 62.8416 70.6553 62.8416 69.2939C62.8416 67.9325 63.9453 66.8286 65.3067 66.8286Z" fill="#ECC9B8"/>
<path d="M59.9648 288.845H69.447V295.021H59.9648V288.845Z" fill="#DE8E68"/>
<path d="M70.0119 288.982L75.9581 170.472C73.1651 172.477 58.7784 176.576 40.6616 171.544C41.9193 181.948 59.6761 289.624 59.6761 289.624H69.9542L70.0119 288.982Z" fill="#74D4DE"/>
<path d="M59.4993 85.9736C27.9072 85.9736 38.9948 170.472 40.7354 172.902C42.476 175.332 74.7046 176.991 76.6852 170.82C77.999 166.736 84.7426 85.9736 59.4993 85.9736Z" fill="#FDD285"/>
<path d="M67.8591 125.136C67.7999 127.484 69.8092 143.406 72.6997 151.06C71.6061 156.693 65.5945 188.227 65.5945 188.227L69.82 193.695C69.82 193.695 85.2804 160.862 86.0626 155.724C86.845 150.586 84.9691 125.133 84.6546 123.884C84.3402 122.636 67.8591 125.136 67.8591 125.136Z" fill="#ECC9B8"/>
<path d="M75.3912 94.6454C84.8218 94.4389 87.4737 119.498 85.8849 121.724C84.2963 123.949 67.496 125.647 65.5885 123.526C63.6806 121.406 65.4108 94.864 75.3912 94.6454Z" fill="#FDD285"/>
<path d="M69.4408 294.322H59.3632L43.1707 300.72V303.15H69.4468L69.4408 294.322Z" fill="black"/>
<path d="M178.41 197.323C176.981 197.46 176.663 201.224 176.956 204.285C177.854 213.522 179.575 222.661 182.097 231.589C182.406 231.56 182.717 231.509 183.033 231.479C187.338 231.068 190.945 231.957 191.089 233.467C191.233 234.976 187.93 236.498 183.695 236.93C183.789 237.219 183.88 237.516 183.977 237.809C188.134 237.474 191.562 238.355 191.703 239.828C191.828 241.142 189.283 242.492 185.78 243.089C196.254 272.224 213.078 294.407 223.954 304.456L236.713 303.237L235.674 292.36C233.858 273.396 193.855 195.848 178.41 197.323Z" fill="#55C9D7"/>
<path d="M291.233 218.881C282.448 219.406 282.076 228.886 276.131 229.242C273.837 229.379 273.057 226.991 272.92 224.705C272.687 220.799 278.13 205.92 278.103 196.576C277.491 196.726 276.868 196.82 276.239 196.856C272.082 197.105 268.565 194.89 268.387 191.917C268.21 188.943 271.437 186.325 275.595 186.077C275.783 186.065 275.968 186.054 276.151 186.06C273.751 179.32 268.669 172.439 258.441 173.05C241.63 174.055 238.825 204.132 237.001 216.383C235.872 223.976 220.7 251.868 221.89 271.771C222.938 289.312 229.222 303.953 230.628 303.869L247.53 302.859C247.208 297.469 257.094 286.886 259.425 284.011C275.55 264.123 303.48 253.847 302.162 231.788C301.884 226.936 300.135 218.349 291.233 218.881Z" fill="#74D4DE"/>
</g>
</svg>
